<?xml version="1.0" standalone="no"?>
<!DOCTYPE svg PUBLIC "-//W3C//DTD SVG 20010904//EN"
 "http://www.w3.org/TR/2001/REC-SVG-20010904/DTD/svg10.dtd">
<svg version="1.0" xmlns="http://www.w3.org/2000/svg"
 width="724.000000pt" height="561.000000pt" viewBox="0 0 724.000000 561.000000"
 preserveAspectRatio="xMidYMid meet">

<g transform="translate(0.000000,561.000000) scale(0.100000,-0.100000)"
fill="#000000" stroke="none">
<path d="M2980 2050 l0 -2030 615 0 615 0 0 795 0 795 190 0 c223 0 237 -4
332 -101 92 -94 124 -150 591 -1024 l249 -465 690 0 c562 0 689 2 685 13 -3 7
-185 317 -406 689 -220 372 -416 705 -433 740 -19 36 -61 91 -98 129 -76 76
-182 133 -380 203 -69 24 -118 46 -110 49 8 3 46 10 84 16 234 40 492 167 653
324 222 215 324 499 310 865 -11 301 -105 524 -299 708 -172 163 -437 278
-723 313 -61 7 -492 11 -1327 11 l-1238 0 0 -2030z m2163 1112 c121 -60 173
-160 165 -321 -7 -146 -68 -241 -192 -298 l-61 -28 -417 -3 -418 -3 0 346 0
346 428 -3 427 -3 68 -33z"/>
</g>
</svg>
