<?xml version="1.0" standalone="no"?>
<!DOCTYPE svg PUBLIC "-//W3C//DTD SVG 20010904//EN"
 "http://www.w3.org/TR/2001/REC-SVG-20010904/DTD/svg10.dtd">
<svg version="1.0" xmlns="http://www.w3.org/2000/svg"
 width="800.000000pt" height="924.000000pt" viewBox="0 0 800.000000 924.000000"
 preserveAspectRatio="xMidYMid meet">

<g transform="translate(0.000000,924.000000) scale(0.100000,-0.100000)"
fill="#000000" stroke="none">
<path d="M2000 8085 l-1995 -1153 -3 -2309 -2 -2310 1097 -633 c3093 -1786
2896 -1673 2923 -1663 14 6 914 524 2000 1151 l1975 1141 0 2312 0 2311 -1998
1154 c-1099 635 -1999 1154 -2000 1153 -1 0 -900 -520 -1997 -1154z m2645 513
c347 -201 646 -375 665 -387 l35 -21 -1345 0 c-811 1 -1339 4 -1330 10 204
123 1328 768 1335 766 6 -2 294 -168 640 -368z m-1235 -1873 c41 -39 54 -85
47 -170 -14 -183 -174 -528 -407 -876 -33 -51 -59 -93 -56 -96 2 -2 28 11 57
30 72 46 155 75 231 82 54 6 70 3 108 -17 104 -54 110 -142 32 -411 -98 -333
-131 -505 -112 -579 13 -46 34 -49 96 -13 101 59 250 328 346 623 105 325 195
470 302 486 81 13 216 17 216 7 0 -6 -14 -32 -30 -58 -30 -46 -116 -258 -180
-438 -70 -202 -112 -422 -92 -490 7 -24 15 -31 39 -33 25 -3 41 7 88 50 77 70
117 133 236 375 95 195 100 206 129 351 29 144 39 267 26 310 -4 11 -3 23 3
26 5 3 64 7 132 8 l122 2 30 -34 c27 -31 29 -37 23 -87 -3 -29 -3 -53 0 -53 3
0 34 26 69 58 113 103 233 160 356 169 93 8 148 -17 179 -81 35 -73 25 -165
-45 -416 -82 -296 -110 -458 -89 -514 4 -9 18 -16 34 -16 38 0 126 80 184 168
72 109 183 343 216 454 99 335 185 449 371 493 86 20 148 20 156 -1 3 -9 -7
-33 -25 -57 -155 -210 -292 -613 -292 -861 0 -111 15 -143 63 -131 46 12 124
92 196 200 120 182 187 336 286 655 62 198 115 235 363 254 93 7 98 2 52 -51
-58 -65 -105 -176 -169 -399 -54 -188 -202 -775 -199 -786 4 -12 135 74 213
139 33 27 125 111 204 187 309 293 437 320 416 86 -18 -214 -69 -400 -156
-575 -241 -484 -774 -852 -1494 -1034 -187 -47 -329 -68 -711 -106 -367 -37
-636 -71 -834 -106 -1026 -182 -1621 -562 -1819 -1162 -13 -37 -28 -67 -34
-67 -7 0 -30 28 -52 62 -96 150 -265 330 -420 449 -309 236 -683 380 -1032
396 -94 4 -133 10 -133 18 0 15 181 101 360 170 472 184 928 287 1535 349 315
32 594 47 1295 71 1026 35 1625 93 1946 190 607 185 1002 492 1233 960 79 159
90 195 66 218 -28 29 -73 2 -299 -181 -134 -108 -250 -189 -304 -211 -26 -11
-42 -33 -82 -110 -60 -114 -117 -192 -203 -279 -156 -160 -339 -242 -536 -242
-99 0 -168 16 -241 56 -62 33 -95 71 -111 123 -55 185 231 368 706 452 72 12
133 25 138 29 10 8 109 331 104 337 -3 2 -27 -24 -53 -59 -64 -83 -170 -194
-211 -219 -41 -26 -125 -49 -176 -49 -112 0 -182 90 -195 253 l-7 82 -54 -90
c-142 -236 -298 -375 -424 -375 -72 0 -120 29 -151 92 -53 105 -31 309 80 747
35 140 64 260 64 267 0 23 -31 44 -63 44 -51 0 -128 -43 -184 -102 -55 -59
-131 -199 -189 -349 -39 -102 -103 -350 -139 -544 -14 -77 -30 -150 -35 -161
-8 -20 -18 -22 -155 -29 -80 -4 -148 -5 -151 -2 -5 4 30 187 42 224 4 10 -18
-17 -47 -59 -66 -95 -168 -201 -229 -240 -176 -112 -310 -10 -310 235 0 42 -4
77 -9 77 -4 0 -30 -37 -56 -82 -176 -306 -362 -440 -505 -366 -140 73 -134
365 17 863 27 87 37 139 37 190 l1 70 -33 -2 c-75 -3 -227 -133 -299 -254 -78
-131 -137 -334 -258 -886 -5 -19 -13 -22 -112 -28 -189 -12 -198 -12 -196 5 0
8 33 139 71 290 38 151 100 399 137 550 172 703 307 1091 460 1318 128 192
250 275 392 269 53 -3 67 -7 93 -32z m-1322 -231 c158 -32 322 -121 367 -198
48 -81 28 -149 -75 -259 -64 -69 -105 -93 -143 -83 -31 7 -43 36 -62 148 -20
116 -44 172 -85 197 -116 70 -289 0 -351 -142 -28 -65 -37 -186 -19 -266 25
-115 95 -238 206 -361 193 -216 319 -450 331 -616 5 -57 1 -87 -17 -145 -73
-244 -241 -417 -474 -488 -175 -54 -422 -49 -543 10 -106 51 -190 166 -213
292 -20 105 32 233 131 321 45 42 61 44 88 15 20 -21 25 -40 56 -199 20 -99
64 -187 131 -260 65 -70 122 -100 189 -100 69 0 123 30 196 107 118 127 155
261 109 404 -29 90 -74 158 -226 345 -152 187 -203 260 -254 361 -95 190 -92
376 10 571 104 200 260 319 460 351 82 13 104 12 188 -5z m2231 -224 c26 -13
54 -88 47 -125 -3 -16 -15 -45 -26 -63 -38 -62 -158 -94 -199 -53 -29 29 -43
89 -31 131 13 45 26 61 74 94 41 27 101 35 135 16z"/>
<path d="M3261 6634 c-64 -53 -134 -196 -239 -485 -70 -194 -175 -530 -167
-537 8 -8 22 14 140 209 141 234 236 426 285 576 46 141 59 225 40 248 -17 20
-24 19 -59 -11z"/>
<path d="M6000 4540 c-267 -80 -430 -162 -430 -215 0 -72 103 -90 225 -40 68
29 171 103 227 164 53 58 96 121 81 120 -4 0 -51 -13 -103 -29z"/>
</g>
</svg>
